# xmcd
#
# Track frame offsets: 
#        150
#        47049
#        75285
#        95261
#        123562
#        167071
#        188284
#        217389
#        259557
#        282012
#        301095
#
# Disc length: 4390 seconds
#
# Revision: 1
# Processed by: cddbd v1.5.2PL0 Copyright (c) Steve Scherf et al.
# Submitted via: ExactAudioCopyFreeDBPlugin 1.0
#
DISCID=8711240b
DTITLE=Pleyel Quartett Köln - Gyrowetz - 3 String Quartets
DYEAR=2013
DGENRE=Chamber Music
TTITLE0=String Quartet in G major, Op. 29 No. 2 - I. Allegro moderato
TTITLE1=String Quartet in G major, Op. 29 No. 2 - II. Adagio non tanto
TTITLE2=String Quartet in G major, Op. 29 No. 2 - III. Menuetto. Alleg
TTITLE2=ro - Trio al rovescio
TTITLE3=String Quartet in G major, Op. 29 No. 2 - IV. Allegretto
TTITLE4=String Quartet in D major, Op. 13 No. 1 - I. Allegro moderato
TTITLE5=String Quartet in D major, Op. 13 No. 1 - II. Larghetto - Alle
TTITLE5=gro - Larghetto
TTITLE6=String Quartet in D major, Op. 13 No. 1 - III. Allegretto - Al
TTITLE6=legro assai
TTITLE7=String Quartet in Eb major, Op. 29 No. 1 - I. Allegro con spir
TTITLE7=ito
TTITLE8=String Quartet in Eb major, Op. 29 No. 1 - II. Andantino, poco
TTITLE8=Adagio
TTITLE9=String Quartet in Eb major, Op. 29 No. 1 - III. Allegro - Trio
TTITLE9=Alternativo
TTITLE10=String Quartet in Eb major, Op. 29 No. 1 - IV. Allegretto
EXTD=
EXTT0=
EXTT1=
EXTT2=
EXTT3=
EXTT4=
EXTT5=
EXTT6=
EXTT7=
EXTT8=
EXTT9=
EXTT10=
PLAYORDER=
